<svg xmlns="http://www.w3.org/2000/svg" width="20" height="20" viewBox="0 0 20 20">
  <path d="M12.1684142,31.6619938 L12.1684142,2.4462793 C12.1684142,1.09523655 13.2537625,0 14.6136368,0 C15.964096,0 17.0588595,1.10233971 17.0588595,2.4462793 L17.0588595,31.6619938 L25.0535228,23.6673305 C26.006097,22.7147563 27.5457681,22.7099996 28.5073445,23.6715759 C29.4622634,24.6264948 29.4646907,26.1722969 28.5115899,27.1253976 L16.3998643,39.2371232 C15.8961782,39.7408093 15.2283455,39.9794947 14.5686246,39.9504422 C13.9386821,39.9551262 13.3077689,39.7174828 12.8274094,39.2371232 L0.715683783,27.1253976 C-0.236890412,26.1728234 -0.241647205,24.6331523 0.719929172,23.6715759 C1.67484803,22.7166571 3.2206501,22.7142298 4.17375087,23.6673305 L12.1684142,31.6619938 Z" transform="translate(-5 -10)"/>
</svg>
