<svg xmlns="http://www.w3.org/2000/svg" width="20" height="20" viewBox="0 0 20 20">
  <path d="M9.2174049,8.4827319 L12.6428055,11.9081325 L11.9081325,12.6428055 L8.48275861,9.2174317 C7.58720512,9.9503428 6.44241457,10.3900679 5.19492291,10.3900679 C2.32584621,10.3900679 0,8.064172 0,5.19503394 C0,2.32589592 2.32584621,0 5.19492291,0 C8.06399961,0 10.3898458,2.32589592 10.3898458,5.19503394 C10.3898458,6.44245566 9.95019821,7.58718998 9.2174049,8.4827319 Z M5.19492291,9.3510611 C7.49018427,9.3510611 9.35086124,7.49034435 9.35086124,5.19503394 C9.35086124,2.89972352 7.49018427,1.03900679 5.19492291,1.03900679 C2.89966155,1.03900679 1.03898458,2.89972352 1.03898458,5.19503394 C1.03898458,7.49034435 2.89966155,9.3510611 5.19492291,9.3510611 Z" transform="translate(4 4)"/>
</svg>
