<svg width="29px" height="29px" viewBox="0 0 29 29" xmlns="http://www.w3.org/2000/svg">
    <g stroke="none" stroke-width="1" fill="none" fill-rule="evenodd">
        <g>
            <rect  fill="#8E8E93" x="0" y="0" width="29" height="29" rx="6"></rect>
            <g transform="translate(7.000000, 5.000000)" fill="#FFFFFF">
                <g>
                    <path d="M12.375,8.03846154 L12.375,4.75 C12.375,2.12699519 10.1924062,0 7.50075,0 C4.80759375,0 2.625,2.12699519 2.625,4.75 L2.625,8.03846154 L0,8.03846154 L0,19 L15,19 L15,8.03846154 L12.375,8.03846154 L12.375,8.03846154 Z M7.875,13.8385769 L7.875,15.3461538 L7.125,15.3461538 L7.125,13.8385769 C6.47803125,13.6763005 6,13.1040625 6,12.4230769 C6,11.6158966 6.67157812,10.9615385 7.5,10.9615385 C8.32842188,10.9615385 9,11.6158966 9,12.4230769 C9,13.1040625 8.52196875,13.6763005 7.875,13.8385769 L7.875,13.8385769 Z M11.625,8.03846154 L3.375,8.03846154 L3.375,4.75 C3.375,2.53380529 5.2258125,0.730769231 7.50075,0.730769231 C9.77489063,0.730769231 11.625,2.53380529 11.625,4.75 L11.625,8.03846154 L11.625,8.03846154 Z"></path>
                    <path d="M7.5,11.6923077 C7.08646875,11.6923077 6.75,12.020149 6.75,12.4230769 C6.75,12.8260048 7.08646875,13.1538462 7.5,13.1538462 C7.91353125,13.1538462 8.25,12.8260048 8.25,12.4230769 C8.25,12.020149 7.91353125,11.6923077 7.5,11.6923077 L7.5,11.6923077 Z"></path>
                </g>
            </g>
        </g>
    </g>
</svg>