<svg fill="#757575" xmlns="http://www.w3.org/2000/svg" width="24px" height="24px" viewBox="0 0 24 24">
<path d="M20,1.5h-4v2h2.6l-2.1,2.1c-1-0.7-2.2-1.1-3.5-1.1s-2.6,0.4-3.6,1.2C8.9,5.6,8.5,5.5,8,5.5c-3.3,0-6,2.7-6,6
	c0,3,2.2,5.4,5,5.9v1.1H3v2h4v2h2v-2h4v-2H9v-1.1c0.9-0.2,1.8-0.5,2.6-1.1c0.5,0.1,0.9,0.2,1.4,0.2c3.3,0,6-2.7,6-6
	C19,9.2,18.6,8,17.9,7L20,4.9v2.6h2v-4v-2H20z M11.1,14C9.9,13.3,9,12,9,10.5C9,9.6,9.3,8.7,9.9,8c1.2,0.7,2.1,2,2.1,3.5
	C12,12.4,11.7,13.3,11.1,14z M8,15.5c-2.2,0-4-1.8-4-4c0-2.1,1.7-3.9,3.8-4C7.3,8.4,7,9.4,7,10.5c0,1.9,0.9,3.7,2.3,4.8
	C8.9,15.4,8.5,15.5,8,15.5z M13.2,14.5c0.5-0.9,0.8-1.9,0.8-3c0-1.9-0.9-3.7-2.3-4.8c0.4-0.2,0.9-0.2,1.3-0.2c2.2,0,4,1.8,4,4
	C17,12.6,15.3,14.4,13.2,14.5z"/>
</svg>
