<svg width="29px" height="29px" viewBox="0 0 29 29" xmlns="http://www.w3.org/2000/svg">
    <g stroke="none" stroke-width="1" fill="none" fill-rule="evenodd">
        <g>
            <rect  fill="#8E8E93" x="0" y="0" width="29" height="29" rx="6"></rect>
            <g transform="translate(5.000000, 5.000000)" fill="#FFFFFF">
                <path d="M15.8709375,15.9065625 C15.105,15.6334375 14.0065625,15.5384375 13.3059375,15.3840625 C12.9021875,15.295 12.314375,15.069375 12.1184375,14.8378125 C11.9225,14.6003125 12.04125,12.409375 12.04125,12.409375 C12.04125,12.409375 12.4034375,11.839375 12.599375,11.340625 C12.7953125,10.841875 13.0090625,9.47625 13.0090625,9.47625 C13.0090625,9.47625 13.4128125,9.47625 13.5553125,8.7696875 C13.7096875,7.9978125 13.9471875,7.6771875 13.9175,7.10125 C13.8878125,6.566875 13.60875,6.5371875 13.5790625,6.5371875 L13.5790625,6.5371875 C13.5790625,6.5371875 13.87,5.7296875 13.9115625,4.0196875 C13.9590625,1.995 12.409375,0 9.5,0 C6.590625,0 5.046875,1.9890625 5.0884375,4.01375 C5.1240625,5.7178125 5.4209375,6.53125 5.4209375,6.53125 L5.4209375,6.53125 C5.39125,6.53125 5.1121875,6.5609375 5.0825,7.0953125 C5.0528125,7.67125 5.29625,7.98 5.4446875,8.751875 C5.5871875,9.4584375 5.9909375,9.464375 5.9909375,9.464375 C5.9909375,9.464375 6.2046875,10.8359375 6.400625,11.3346875 C6.5965625,11.839375 6.95875,12.4034375 6.95875,12.4034375 C6.95875,12.4034375 7.0775,14.594375 6.8815625,14.831875 C6.685625,15.069375 6.0978125,15.2890625 5.6940625,15.378125 C4.9875,15.5325 3.895,15.6334375 3.1290625,15.9065625 C2.363125,16.1796875 0,17.1 0,19 L9.5,19 L19,19 C19,17.1 16.636875,16.1796875 15.8709375,15.9065625 L15.8709375,15.9065625 Z"></path>
            </g>
        </g>
    </g>
</svg>