<svg width="29px" height="29px" viewBox="0 0 29 29" xmlns="http://www.w3.org/2000/svg">
    <g stroke="none" stroke-width="1" fill="none" fill-rule="evenodd">
        <g>
            <rect  fill="#8E8E93" x="0" y="0" width="29" height="29" rx="6"></rect>
            <g transform="translate(6.000000, 6.000000)" fill="#FFFFFF">
                <path d="M16.2246459,12.3045326 C15.5215297,11.582153 13.5229462,10.2288952 12.2130312,10.2288952 C11.9096317,10.2288952 11.6447592,10.2963173 11.4280453,10.4359773 C10.7875354,10.8453258 10.2770538,11.1631728 10.0314448,11.1631728 C9.89660057,11.1631728 9.75212465,11.0427762 9.43427762,10.768272 L9.38130312,10.7201133 C8.5,9.95439093 8.3121813,9.75694051 7.97025496,9.40056657 L7.88356941,9.30906516 C7.82096317,9.24645892 7.76798867,9.18866856 7.71501416,9.13569405 C7.41643059,8.82747875 7.19971671,8.60594901 6.43399433,7.73909348 L6.40028329,7.70056657 C6.03427762,7.28640227 5.79348442,7.01671388 5.77903683,6.81926346 C5.76458924,6.6266289 5.93314448,6.31359773 6.36175637,5.73087819 C6.88186969,5.02776204 6.90113314,4.16090652 6.42436261,3.15439093 C6.04390935,2.35977337 5.42266289,1.59886686 4.87365439,0.929461756 L4.82549575,0.871671388 C4.35354108,0.293767705 3.80453258,0.00481586402 3.19291785,0.00481586402 C2.51388102,0.00481586402 1.95042493,0.37082153 1.65184136,0.563456091 C1.62776204,0.577903683 1.60368272,0.597167139 1.5796034,0.611614731 C0.9101983,1.03541076 0.423796034,1.61813031 0.240793201,2.21048159 C-0.0337110482,3.10141643 -0.216713881,4.2572238 1.098017,6.66033994 C2.23456091,8.7407932 3.26515581,10.1373938 4.90254958,11.8181303 C6.44362606,13.3977337 7.12747875,13.9082153 8.65892351,15.015864 C10.3637394,16.2487252 12.0011331,16.9566572 13.1473088,16.9566572 C14.2116147,16.9566572 15.0495751,16.9566572 16.2439093,15.5167139 C17.496034,14.0045326 16.9759207,13.0798867 16.2246459,12.3045326 L16.2246459,12.3045326 Z"></path>
            </g>
        </g>
    </g>
</svg>