<?xml version="1.0" encoding="UTF-8" standalone="no"?>
<svg width="29px" height="29px" viewBox="0 0 29 29" version="1.1" xmlns="http://www.w3.org/2000/svg" xmlns:xlink="http://www.w3.org/1999/xlink" xmlns:sketch="http://www.bohemiancoding.com/sketch/ns">
    <!-- Generator: Sketch 3.2 (9961) - http://www.bohemiancoding.com/sketch -->
    <title>Slider</title>
    <desc>Created with Sketch.</desc>
    <defs></defs>
    <g id="Page-1" stroke="none" stroke-width="1" fill="none" fill-rule="evenodd" sketch:type="MSPage">
        <g id="Slider" sketch:type="MSLayerGroup">
            <rect id="Rectangle-1" fill="#8E8E93" sketch:type="MSShapeGroup" x="0" y="0" width="29" height="29" rx="6"></rect>
            <g id="ios-settings-strong" transform="translate(5.000000, 7.000000)" fill="#FFFFFF" sketch:type="MSShapeGroup">
                <g id="Group">
                    <path d="M0,12.6136364 L12.0170759,12.6136364 C12.2794286,12.0122727 12.8772076,11.5909091 13.5714286,11.5909091 C14.2656496,11.5909091 14.863471,12.0122727 15.1257812,12.6136364 L19,12.6136364 L19,13.9772727 L15.1257812,13.9772727 C14.8634286,14.5786364 14.2656496,15 13.5714286,15 C12.8772076,15 12.2793862,14.5786364 12.0170759,13.9772727 L0,13.9772727" id="Shape"></path>
                    <path d="M0,6.81818182 L3.87421875,6.81818182 C4.13657143,6.21681818 4.73435045,5.79545455 5.42857143,5.79545455 C6.12279241,5.79545455 6.72061384,6.21681818 6.98292411,6.81818182 L19,6.81818182 L19,8.18181818 L6.98292411,8.18181818 C6.72057143,8.78318182 6.12279241,9.20454545 5.42857143,9.20454545 C4.73435045,9.20454545 4.13652902,8.78318182 3.87421875,8.18181818 L0,8.18181818" id="Shape"></path>
                    <path d="M0,1.02272727 L12.0170759,1.02272727 C12.2794286,0.421363636 12.8772076,0 13.5714286,0 C14.2656496,0 14.863471,0.421363636 15.1257812,1.02272727 L19,1.02272727 L19,2.38636364 L15.1257812,2.38636364 C14.8634286,2.98772727 14.2656496,3.40909091 13.5714286,3.40909091 C12.8772076,3.40909091 12.2793862,2.98772727 12.0170759,2.38636364 L0,2.38636364" id="Shape"></path>
                </g>
            </g>
        </g>
    </g>
</svg>