<svg width="29px" height="29px" viewBox="0 0 29 29" xmlns="http://www.w3.org/2000/svg">
    <g stroke="none" stroke-width="1" fill="none" fill-rule="evenodd">
        <g>
            <rect  fill="#8E8E93" x="0" y="0" width="29" height="29" rx="6"></rect>
            <g transform="translate(4.000000, 4.000000)" fill="#FFFFFF">
                <g>
                    <path d="M10.5,0 L10.4899038,0 C10.4899038,0 10.4899038,0 10.4848558,0 L10.4747596,0 C4.68461538,0.0151442308 0,4.70985577 0,10.5 C0,16.2901442 4.68461538,20.9848558 10.4747596,21 L10.4848558,21 L10.4899038,21 L10.5,21 C16.3002404,21 21,16.3002404 21,10.5 C21,4.69975962 16.3002404,0 10.5,0 L10.5,0 Z M10.5,20.1620192 L10.4899038,20.1620192 C10.4899038,20.1620192 10.4899038,20.1620192 10.4848558,20.1620192 L10.4747596,20.1620192 C5.15408654,20.146875 0.837980769,15.8257212 0.837980769,10.5 C0.837980769,5.17427885 5.14903846,0.853125 10.4747596,0.843028846 L10.4848558,0.843028846 L10.4899038,0.843028846 L10.5,0.843028846 C15.8358173,0.843028846 20.1620192,5.16923077 20.1620192,10.5050481 C20.1620192,15.8358173 15.8358173,20.1620192 10.5,20.1620192 L10.5,20.1620192 Z"></path>
                    <path d="M13.846875,6.24951923 C12.9028846,6.47668269 11.9286058,6.61298077 10.9240385,6.64326923 L10.9240385,10.0810096 L14.3365385,10.0810096 C14.30625,8.6625 14.1295673,7.37524038 13.846875,6.24951923 L13.846875,6.24951923 Z"></path>
                    <path d="M10.9189904,1.74158654 L10.9189904,5.87596154 C11.8528846,5.84567308 12.7615385,5.72451923 13.6348558,5.5125 C12.9735577,3.42259615 11.94375,2.04951923 10.9189904,1.74158654 L10.9189904,1.74158654 Z"></path>
                    <path d="M7.33990385,5.50745192 C8.22331731,5.71947115 9.13701923,5.84567308 10.0759615,5.87596154 L10.0759615,1.73149038 C9.05120192,2.02932692 8.00625,3.40240385 7.33990385,5.50745192 L7.33990385,5.50745192 Z"></path>
                    <path d="M16.7899038,4.31105769 C15.6490385,3.15 14.1901442,2.30192308 12.5545673,1.91322115 C13.3016827,2.68557692 13.9276442,3.86682692 14.3769231,5.31057692 C15.2199519,5.053125 16.0276442,4.71995192 16.7899038,4.31105769 L16.7899038,4.31105769 Z"></path>
                    <path d="M15.1088942,10.0810096 L19.3139423,10.0810096 C19.2230769,8.12235577 18.4911058,6.32524038 17.3199519,4.90168269 C16.4567308,5.37620192 15.5430288,5.76490385 14.5889423,6.05264423 C14.896875,7.26418269 15.0786058,8.63221154 15.1088942,10.0810096 L15.1088942,10.0810096 Z"></path>
                    <path d="M6.63822115,10.0810096 L10.0810096,10.0810096 L10.0810096,6.64326923 C9.06634615,6.61298077 8.08197115,6.47668269 7.13293269,6.24447115 C6.84519231,7.37019231 6.66850962,8.6625 6.63822115,10.0810096 L6.63822115,10.0810096 Z"></path>
                    <path d="M14.3365385,10.9189904 L10.9189904,10.9189904 L10.9189904,14.3516827 C11.9235577,14.3819712 12.9028846,14.5132212 13.846875,14.7454327 C14.1295673,13.6247596 14.30625,12.3324519 14.3365385,10.9189904 L14.3365385,10.9189904 Z"></path>
                    <path d="M7.13293269,14.7504808 C8.08197115,14.5182692 9.06634615,14.3819712 10.0810096,14.3516827 L10.0810096,10.9189904 L6.63822115,10.9189904 C6.66850962,12.3375 6.84519231,13.6298077 7.13293269,14.7504808 L7.13293269,14.7504808 Z"></path>
                    <path d="M10.0810096,19.2634615 L10.0810096,15.1189904 C9.14206731,15.1492788 8.22331731,15.2754808 7.33990385,15.4875 C8.00625,17.5925481 9.05120192,18.9706731 10.0810096,19.2634615 L10.0810096,19.2634615 Z"></path>
                    <path d="M12.5545673,19.0867788 C14.1901442,18.6930288 15.6490385,17.85 16.7949519,16.6838942 C16.0326923,16.275 15.225,15.9418269 14.3819712,15.684375 C13.9326923,17.1331731 13.3016827,18.309375 12.5545673,19.0867788 L12.5545673,19.0867788 Z"></path>
                    <path d="M8.41514423,1.92331731 C6.79471154,2.31706731 5.34591346,3.16009615 4.21009615,4.31610577 C4.96730769,4.71995192 5.76490385,5.053125 6.59783654,5.30552885 C7.04711538,3.86682692 7.67307692,2.69567308 8.41514423,1.92331731 L8.41514423,1.92331731 Z"></path>
                    <path d="M14.5889423,14.9473558 C15.5480769,15.2350962 16.4617788,15.6237981 17.325,16.0983173 C18.4961538,14.6747596 19.228125,12.8776442 19.3189904,10.9189904 L15.1139423,10.9189904 C15.0786058,12.3677885 14.896875,13.7307692 14.5889423,14.9473558 L14.5889423,14.9473558 Z"></path>
                    <path d="M10.9189904,15.1189904 L10.9189904,19.2584135 C11.94375,18.9504808 12.9735577,17.5774038 13.6348558,15.4824519 C12.7615385,15.2704327 11.8528846,15.1492788 10.9189904,15.1189904 L10.9189904,15.1189904 Z"></path>
                    <path d="M6.39086538,6.04759615 C5.44182692,5.75985577 4.53317308,5.37620192 3.68004808,4.90168269 C2.50889423,6.32524038 1.77692308,8.12235577 1.68605769,10.0810096 L5.87091346,10.0810096 C5.89615385,8.62716346 6.08293269,7.25913462 6.39086538,6.04759615 L6.39086538,6.04759615 Z"></path>
                    <path d="M5.86586538,10.9189904 L1.68100962,10.9189904 C1.771875,12.8776442 2.50384615,14.6747596 3.675,16.0983173 C4.528125,15.6288462 5.43677885,15.2401442 6.38581731,14.9524038 C6.08293269,13.7408654 5.89615385,12.3728365 5.86586538,10.9189904 L5.86586538,10.9189904 Z"></path>
                    <path d="M4.20504808,16.6838942 C5.34086538,17.8399038 6.78966346,18.6829327 8.41514423,19.0766827 C7.67307692,18.3043269 7.04711538,17.128125 6.59783654,15.6894231 C5.76490385,15.946875 4.96225962,16.2800481 4.20504808,16.6838942 L4.20504808,16.6838942 Z"></path>
                </g>
            </g>
        </g>
    </g>
</svg>