<svg width="29px" height="29px" viewBox="0 0 29 29" xmlns="http://www.w3.org/2000/svg">
    <g stroke="none" stroke-width="1" fill="none" fill-rule="evenodd">
        <g>
            <rect  fill="#8E8E93" x="0" y="0" width="29" height="29" rx="6"></rect>
            <g transform="translate(5.000000, 7.000000)" fill="#FFFFFF">
                <path d="M9.50494187,0 C4.25247139,0 0,3.455 0,7.715 C0,9.25 0.554454943,10.68 1.50494913,11.88 C1.54950354,11.925 1.64851336,12.07 1.68316679,12.125 C1.68316679,12.125 1.63366188,12.045 1.62871139,12.03 L1.62871139,12.03 L1.62871139,12.03 L1.62871139,12.03 C1.74257268,12.195 1.80692905,12.385 1.80692905,12.59 C1.80692905,12.66 0.920791244,15.49 0.920791244,15.49 L0.920791244,15.49 C0.856434867,15.71 1.02475155,15.935 1.29702853,15.99 C1.33663245,16 1.37623638,16 1.4158403,16 C1.48019668,16 1.53960256,15.99 1.59900845,15.975 L1.6782163,15.945 L4.18316452,14.845 C4.22771894,14.825 4.62870867,14.67 4.67821358,14.65 L4.70791652,14.64 C4.70791652,14.64 4.70296603,14.64 4.67821358,14.65 C4.84653026,14.59 5.0346489,14.56 5.23266852,14.56 C5.41088618,14.56 5.58415335,14.585 5.74256905,14.635 C5.74751954,14.635 5.75247003,14.635 5.75247003,14.64 C5.77722248,14.65 5.80197494,14.655 5.82672739,14.665 C6.97029071,15.06 8.22276482,15.18 9.5445458,15.18 C14.7920658,15.18 18.9999828,11.975 18.9999828,7.715 C19.0098837,3.455 14.7524619,0 9.50494187,0 L9.50494187,0 L9.50494187,0 Z"></path>
            </g>
        </g>
    </g>
</svg>